<svg width="500" height="500" viewBox="0 0 500 500" fill="none" xmlns="http://www.w3.org/2000/svg">
    <rect x="25" y="25" width="450" height="400" fill="currentColor"/>
    <rect x="68" y="88" width="365" height="275" fill="currentColor" class="svg-cor-borda"/>
    <path d="M416 225L251 129.737L251 320.263L416 225Z" fill="currentColor"/>
    <path d="M85 225L250 129.737L250 320.263L85 225Z" fill="currentColor"/>
    <rect x="241" y="140" width="18" height="173" fill="currentColor"/>
    <rect width="11.5367" height="7.14048" transform="matrix(-0.865816 -0.500363 -0.500363 0.865816 254.074 314.37)" fill="currentColor"/>
    <rect width="12.4619" height="10.524" transform="matrix(0.865904 0.50021 0.50021 -0.865904 245.239 138.561)" fill="currentColor"/>
    <rect x="254.867" y="136.998" width="11.0467" height="8.72307" transform="rotate(149.976 254.867 136.998)" fill="currentColor"/>
    <rect x="247.087" y="314.648" width="11.5495" height="6.81925" transform="rotate(-30.0139 247.087 314.648)" fill="currentColor"/>
</svg>
